<svg xmlns="http://www.w3.org/2000/svg" xmlns:xlink="http://www.w3.org/1999/xlink" width="500" zoomAndPan="magnify" viewBox="0 0 375 374.999991" height="500" preserveAspectRatio="xMidYMid meet" version="1.0"><defs><g/></defs><rect x="-37.5" width="450" fill="#ffffff" y="-37.499999" height="449.999989" fill-opacity="1"/><rect x="-37.5" width="450" fill="#0633ff" y="-37.499999" height="449.999989" fill-opacity="1"/><g fill="#fdfdfd" fill-opacity="1"><g transform="translate(38.712336, 219.628491)"><g><path d="M 48.484375 0.125 L 3.828125 0.125 L 3.828125 -89.328125 L 48.484375 -89.328125 C 54.609375 -89.328125 60.375 -88.15625 65.78125 -85.8125 C 71.1875 -83.476562 75.953125 -80.269531 80.078125 -76.1875 C 84.203125 -72.101562 87.410156 -67.335938 89.703125 -61.890625 C 92.003906 -56.441406 93.15625 -50.65625 93.15625 -44.53125 C 93.15625 -38.40625 92.003906 -32.640625 89.703125 -27.234375 C 87.410156 -21.835938 84.203125 -17.078125 80.078125 -12.953125 C 75.953125 -8.828125 71.1875 -5.613281 65.78125 -3.3125 C 60.375 -1.019531 54.609375 0.125 48.484375 0.125 Z M 48.484375 0.125 "/></g></g></g><g fill="#fdfdfd" fill-opacity="1"><g transform="translate(136.57703, 219.628491)"><g><path d="M 22.84375 -89.328125 L 89.84375 -89.328125 L 89.84375 -44.40625 L 74.265625 -44.40625 L 74.265625 -43.515625 C 78.523438 -42.578125 81.972656 -40.851562 84.609375 -38.34375 C 87.242188 -35.832031 89.09375 -32.9375 90.15625 -29.65625 C 91.21875 -26.382812 91.535156 -23.003906 91.109375 -19.515625 C 90.679688 -16.035156 89.570312 -12.804688 87.78125 -9.828125 C 86 -6.847656 83.578125 -4.441406 80.515625 -2.609375 C 77.453125 -0.785156 73.753906 0.125 69.421875 0.125 L 2.9375 0.125 L 2.9375 -44.40625 L 20.921875 -44.40625 L 20.921875 -45.296875 C 14.710938 -46.492188 9.78125 -48.984375 6.125 -52.765625 C 2.46875 -56.546875 0.640625 -61.332031 0.640625 -67.125 C 0.640625 -70.945312 1.640625 -74.5625 3.640625 -77.96875 C 5.640625 -81.375 8.316406 -84.117188 11.671875 -86.203125 C 15.035156 -88.285156 18.757812 -89.328125 22.84375 -89.328125 Z M 22.84375 -89.328125 "/></g></g></g><g fill="#fdfdfd" fill-opacity="1"><g transform="translate(230.99671, 219.628491)"><g><path d="M -3.578125 0 L 52.828125 -95.578125 L 109.234375 0 Z M -3.578125 0 "/></g></g></g></svg>